<?xml version="1.0" standalone="no"?>
<!DOCTYPE svg PUBLIC "-//W3C//DTD SVG 1.1//EN" "http://www.w3.org/Graphics/SVG/1.1/DTD/svg11.dtd" >
<svg xmlns="http://www.w3.org/2000/svg">
<metadata>
This is a custom SVG webfont generated by Font Squirrel.
Copyright   :  1985 1987 1997 1998 2001 2002 Adobe Systems Incorporated All rights reserved
Designer    : Herb Lubalin
Foundry URL : httpwwwadobecomtype
</metadata>
<defs>
<font id="ITCLubalinGraphStdDemi" horiz-adv-x="1163" >
<font-face units-per-em="2048" ascent="1473" descent="-575" />
<missing-glyph horiz-adv-x="602" />
<glyph unicode=" "  horiz-adv-x="602" />
<glyph unicode="&#x09;" horiz-adv-x="602" />
<glyph unicode="&#xa0;" horiz-adv-x="602" />
<glyph unicode="!" horiz-adv-x="401" d="M74 0v283h254v-283h-254zM74 430v1004h254v-1004h-254z" />
<glyph unicode="&#x22;" horiz-adv-x="802" d="M72 1434h254l-56 -578h-145zM461 1434h254l-56 -578h-145z" />
<glyph unicode="#" d="M53 479v152h269l30 205h-239v149h260l65 449h150l-62 -449h207l64 449h153l-65 -449h227v-149h-250l-26 -205h217v-152h-242l-70 -479h-153l67 479h-204l-70 -479h-152l68 479h-244zM473 631h205l31 205h-207z" />
<glyph unicode="$" d="M109 1044q0 152 102 266.5t252 135.5v209h209v-232q74 -12 119 -75v86h188v-394h-223q-2 80 -56.5 131.5t-136.5 51.5q-78 0 -133 -47.5t-55 -124.5q0 -86 52 -127t146 -66q219 -55 312 -121q172 -123 172 -331q0 -170 -106.5 -291t-278.5 -150v-207h-209v242l-14 2 q-80 27 -119 80v-82h-203v426h238q-4 -94 59 -161.5t158 -67.5q86 0 144 53t58 139q0 90 -59 136t-162 77q-215 63 -295 121q-76 53 -117.5 139t-41.5 182z" />
<glyph unicode="%" horiz-adv-x="1724" d="M63 1112q0 143 104.5 246.5t250.5 103.5q147 0 252.5 -104.5t105.5 -249.5q0 -150 -103.5 -253t-250.5 -103q-152 0 -255.5 104t-103.5 256zM272 1110q0 -63 43 -107.5t107 -44.5q59 0 102 44.5t43 103.5q0 61 -43 104t-104 43t-104.5 -42t-43.5 -101zM440 0l645 1434 h197l-643 -1434h-199zM950 340q0 143 103.5 246.5t249.5 103.5q150 0 254 -103.5t104 -248.5q0 -150 -103.5 -255.5t-250.5 -105.5q-152 0 -254.5 105.5t-102.5 257.5zM1157 338q0 -63 45 -107.5t107 -44.5q59 0 102 44t43 104.5t-44 104.5t-103.5 44t-104.5 -43t-45 -102z " />
<glyph unicode="&#x26;" horiz-adv-x="1443" d="M72 387q0 135 77.5 228.5t215.5 179.5l-13 14q-74 76 -108.5 145.5t-34.5 161.5q0 152 107.5 253t261.5 101q147 0 253.5 -96t106.5 -239q0 -109 -63.5 -197t-165.5 -147l231 -228l139 305h297v-221h-141l-125 -254l246 -246l-170 -167l-228 225q-170 -233 -430 -234 q-182 0 -319 119t-137 297zM336 406q0 -84 61.5 -142.5t147.5 -58.5t141 44t100 126l-266 264q-184 -94 -184 -233zM449 1120q0 -88 100 -176l16 -16q147 92 148 190q0 57 -37 99.5t-95.5 42.5t-95 -40.5t-36.5 -99.5z" />
<glyph unicode="'" horiz-adv-x="401" d="M72 1434h254l-56 -578h-145z" />
<glyph unicode="(" horiz-adv-x="720" d="M72 584q0 283 164.5 522.5t429.5 327.5v-299q-145 -84 -230.5 -232.5t-85.5 -316.5t85 -318.5t231 -228.5v-305q-266 96 -430 330.5t-164 519.5z" />
<glyph unicode=")" horiz-adv-x="720" d="M72 39q147 78 232 228.5t85 318.5t-85 315.5t-232 233.5v299q266 -88 430 -328t164 -522q0 -285 -163 -520.5t-431 -329.5v305z" />
<glyph unicode="*" horiz-adv-x="720" d="M68 1081v129l188 -6l-109 156l109 74l104 -174l95 174l114 -70l-100 -154l184 11v-127l-182 4l102 -150l-108 -74l-98 173l-88 -173l-111 64l96 156z" />
<glyph unicode="+" horiz-adv-x="1323" d="M152 627v184h417v418h185v-418h417v-184h-417v-418h-185v418h-417z" />
<glyph unicode="," horiz-adv-x="602" d="M174 0v283h254v-322q0 -129 -49 -188q-31 -39 -69 -50.5t-97 -11.5h-39v137h27q39 0 57 20.5t21.5 43t3.5 61.5v27h-109z" />
<glyph unicode="-" horiz-adv-x="641" d="M63 406v243h515v-243h-515z" />
<glyph unicode="." horiz-adv-x="602" d="M174 0v283h254v-283h-254z" />
<glyph unicode="/" d="M72 -391l897 1825h180l-899 -1825h-178z" />
<glyph unicode="0" d="M63 522v402q0 127 28 214t106 167q160 166 383 165q209 0 366 -145q88 -82 121 -176t33 -225v-402q0 -125 -28 -213t-107 -168q-164 -170 -385 -170q-205 0 -363 150q-88 82 -121 174t-33 227zM334 518q0 -139 45 -205q68 -96 203 -96q145 0 211 111q39 63 38 190v406 q0 137 -49 204q-66 98 -200 99q-143 0 -211 -113q-37 -61 -37 -190v-406z" />
<glyph unicode="1" d="M268 1204v230h477v-1205h168v-229h-602v229h168v975h-211z" />
<glyph unicode="2" d="M102 965q-2 217 137.5 361t354.5 144q195 0 330 -136t135 -333q0 -98 -43 -187t-89 -138t-141 -135l-337 -312h366v152h236v-381h-942v229l516 500q4 4 24.5 23.5t27.5 26.5t25.5 26.5t25.5 30t20.5 28t19.5 31.5t14.5 32.5t11.5 36t3 35.5q0 88 -64.5 147.5t-152.5 59.5 q-98 0 -161 -70.5t-59 -170.5h-258z" />
<glyph unicode="3" d="M84 414h270q14 -88 77 -145.5t151 -57.5q94 0 162.5 67.5t68.5 161.5q0 109 -72.5 173.5t-181.5 64.5h-53l-12 -2v209h57q98 0 159.5 45t61.5 139q0 80 -51 130t-129 50q-72 0 -122 -47t-52 -121h-248q2 172 129 280.5t299 108.5q170 0 294 -104t124 -270q0 -90 -44 -172 t-122 -123q109 -41 176.5 -144.5t67.5 -224.5q0 -186 -148 -326q-141 -135 -348 -135q-205 0 -354.5 121t-159.5 322z" />
<glyph unicode="4" d="M20 381v209l619 844h307v-844h213v-209h-213v-152h166v-229h-598v229h166v152h-660zM311 590h369v520z" />
<glyph unicode="5" d="M55 383h283q29 -76 92.5 -120t147.5 -44q113 0 191.5 77t78.5 189.5t-80 188.5t-193 76q-160 0 -229 -142l-225 58l129 768h762v-230h-553l-56 -303q109 76 250 76q201 0 336 -144.5t135 -347.5q0 -225 -160.5 -369.5t-388.5 -144.5q-195 0 -337 112t-183 300z" />
<glyph unicode="6" d="M59 514q0 164 127 352l385 568h299l-331 -478q55 33 125 33q193 0 323.5 -146.5t130.5 -340.5q0 -223 -153.5 -377t-376.5 -154q-98 0 -198.5 42t-172.5 112q-158 156 -158 389zM324 499.5q0 -110.5 76.5 -189.5t189.5 -79q109 0 188.5 76t79.5 185q0 113 -76.5 191.5 t-189.5 78.5q-111 0 -189.5 -76t-78.5 -186.5z" />
<glyph unicode="7" d="M115 973v461h950v-232l-533 -1202h-294l553 1204h-418v-231h-258z" />
<glyph unicode="8" d="M82 418q0 119 69.5 221t180.5 145q-82 37 -131 116t-49 171q0 180 129 289.5t307 109.5q164 0 284.5 -108.5t120.5 -267.5q0 -195 -162 -295q113 -37 181.5 -141.5t68.5 -223.5q0 -201 -150.5 -332t-353 -131t-349 123t-146.5 324zM346 434q0 -96 68.5 -162.5 t165.5 -66.5q92 0 157.5 68.5t65.5 160.5q0 94 -68.5 161t-163 67t-160 -67t-65.5 -161zM391 1063q0 -78 52.5 -131t129.5 -53q76 0 128.5 53t52.5 128t-52.5 130t-126.5 55q-76 0 -130 -53t-54 -129z" />
<glyph unicode="9" d="M55 946q0 211 161 367.5t376 156.5q211 0 369 -145q166 -158 165 -393q0 -102 -28.5 -181t-89.5 -173l-383 -578h-332l358 475q-70 -33 -127 -33q-201 0 -335 150.5t-134 353.5zM322 946q0 -115 77.5 -194.5t192.5 -79.5t191.5 79.5t76.5 194.5q0 106 -80 184t-188 78 q-111 0 -190.5 -78t-79.5 -184z" />
<glyph unicode=":" horiz-adv-x="602" d="M174 0v283h254v-283h-254zM174 750v282h254v-282h-254z" />
<glyph unicode=";" horiz-adv-x="602" d="M174 0v283h254v-322q0 -129 -49 -188q-31 -39 -69 -50.5t-97 -11.5h-39v137h27q39 0 57 20.5t21.5 43t3.5 61.5v27h-109zM174 750v282h254v-282h-254z" />
<glyph unicode="&#x3c;" horiz-adv-x="1323" d="M111 631v176l1083 500v-185l-903 -405l903 -400v-182z" />
<glyph unicode="=" horiz-adv-x="1323" d="M152 467v186h1019v-186h-1019zM152 780v187h1019v-187h-1019z" />
<glyph unicode="&#x3e;" horiz-adv-x="1323" d="M111 135v182l903 400l-903 405v185l1083 -500v-176z" />
<glyph unicode="?" horiz-adv-x="1083" d="M72 979q-4 205 137 348t344 143q193 0 332 -139t139 -330q0 -92 -31.5 -161.5t-79 -114.5t-95.5 -86t-88 -101.5t-52 -136.5h-252q0 117 49 200t152 177q39 37 51 49.5t38.5 43t35 59t8.5 65.5q0 86 -61.5 150.5t-145.5 64.5q-98 0 -158.5 -66.5t-62.5 -164.5h-260z M426 0v283h252v-283h-252z" />
<glyph unicode="@" horiz-adv-x="1765" d="M164 707q0 313 231.5 538t546.5 225q272 0 467 -170t195 -440q0 -207 -105 -350q-57 -80 -147 -134t-183 -54q-123 0 -141 127q-92 -119 -231 -119q-129 0 -204 94t-75 227q0 174 131 325.5t305 151.5q63 0 117.5 -34.5t79.5 -89.5l20 61h146l-150 -481q-16 -57 -16 -88 q0 -59 59 -60q45 0 98.5 35t86.5 78q96 117 96 295q0 233 -157.5 371.5t-395.5 138.5q-268 0 -453 -185q-193 -188 -192 -452q0 -276 188.5 -452.5t468.5 -176.5q311 0 525 213l43 -90q-217 -240 -564 -240q-147 0 -294.5 50.5t-253.5 144.5q-111 98 -176.5 243.5 t-65.5 297.5zM676 645q0 -76 39 -127t108 -51q147 0 221 199q39 109 39 188q0 63 -33.5 101t-95.5 38q-117 0 -197.5 -114.5t-80.5 -233.5z" />
<glyph unicode="A" horiz-adv-x="1564" d="M14 0v229h152l418 975h-158v230h479l502 -1205h152v-229h-605v201h160l-84 215h-504l-82 -215h154v-201h-584zM596 627h365l-181 491h-2z" />
<glyph unicode="B" horiz-adv-x="1204" d="M45 0v229h154v975h-154v230h635q197 0 297 -76q135 -102 135 -285q0 -100 -49 -181t-137 -124q119 -47 183.5 -143.5t64.5 -225.5q0 -186 -134 -303q-111 -96 -329 -96h-666zM471 240h152q143 0 198 34q80 53 80 158t-78 162q-59 43 -198 43h-154v-397zM473 860h139h22 h21h21q16 0 22.5 1l19.5 3t21.5 5t18.5 7.5t19 9.5t20 11q63 47 63 137q0 94 -74 142q-43 29 -172 28h-141v-344z" />
<glyph unicode="C" horiz-adv-x="1523" d="M41 729q0 303 214 522t517 219q274 0 445 -176v146h225v-459h-262q-57 100 -167 159.5t-229 59.5q-203 0 -336 -135t-133 -338q0 -193 136.5 -333t328.5 -140q125 0 231.5 57.5t172.5 159.5h295q-70 -219 -267.5 -359.5t-429.5 -140.5q-143 0 -283.5 59.5t-242.5 162.5 q-215 221 -215 536z" />
<glyph unicode="D" horiz-adv-x="1484" d="M45 0v229h156v975h-156v230h680q158 0 276.5 -42t223.5 -147q203 -205 202 -532q0 -293 -184 -500q-190 -213 -522 -213h-676zM473 248h215q117 0 200 25.5t150 99.5q117 135 117 340q0 231 -125 362q-70 72 -146.5 93.5t-191.5 21.5h-219v-942z" />
<glyph unicode="E" d="M45 0v229h156v975h-156v230h1061v-433h-272v187h-361v-357h418v-213h-418v-378h361v194h272v-434h-1061z" />
<glyph unicode="F" d="M45 0v229h156v975h-156v230h1069v-433h-272v187h-369v-367h416v-211h-416v-381h158v-229h-586z" />
<glyph unicode="G" horiz-adv-x="1564" d="M41 721q0 303 203 518q104 109 246.5 170t289.5 61q254 0 453 -170v134h223v-422h-297q-68 92 -162 139t-211 47q-199 0 -335 -137t-136 -336t136.5 -339t332.5 -140q145 0 258 73.5t164 206.5h-530v230h833v-756h-227v221q-80 -121 -212 -185.5t-286 -64.5 q-309 0 -526 219.5t-217 530.5z" />
<glyph unicode="H" horiz-adv-x="1484" d="M45 0v229h156v975h-156v230h584v-230h-156v-346h553v346h-156v230h584v-230h-156v-975h156v-229h-584v229h156v357h-553v-357h156v-229h-584z" />
<glyph unicode="I" horiz-adv-x="681" d="M45 0v229h156v975h-156v230h584v-230h-156v-975h156v-229h-584z" />
<glyph unicode="J" horiz-adv-x="1083" d="M25 403h284q2 -72 44 -125t112 -53q88 0 135 78q29 49 29 180v721h-158v230h584v-230h-154v-753q0 -113 -18.5 -188t-79.5 -146q-57 -68 -149.5 -107t-186.5 -39q-197 0 -324 120q-119 113 -119 289q1 11 1 23z" />
<glyph unicode="K" horiz-adv-x="1443" d="M45 0v229h156v975h-156v230h584v-230h-156v-420l445 420h-130v230h590v-230h-123l-507 -469l534 -506h127v-229h-610v229h141l-467 443v-443h156v-229h-584z" />
<glyph unicode="L" horiz-adv-x="1122" d="M45 0v229h156v975h-156v230h584v-230h-156v-958h344v188h273v-434h-1045z" />
<glyph unicode="M" horiz-adv-x="1925" d="M37 0v229h156v975h-156v230h536l390 -1012l391 1012h536v-230h-155v-975h155v-229h-583v229h153v832l-395 -1061h-193l-407 1061v-832h168v-229h-596z" />
<glyph unicode="N" horiz-adv-x="1605" d="M45 0v229h154v975h-154v230h401l682 -961v731h-157v230h585v-230h-155v-1204h-254l-676 944v-715h158v-229h-584z" />
<glyph unicode="O" horiz-adv-x="1564" d="M41 717q0 315 220 533t536 218q307 0 527 -217t220 -522q0 -315 -220 -537.5t-533 -222.5q-311 0 -530.5 219.5t-219.5 528.5zM322 725q0 -201 136 -341t333 -140q199 0 335 141t136 342q0 193 -137.5 331t-329.5 138q-197 0 -335 -137t-138 -334z" />
<glyph unicode="P" horiz-adv-x="1204" d="M47 0v229h154v975h-154v230h569q252 0 381 -95q176 -131 177 -374q0 -203 -138 -336q-131 -133 -366 -133h-197v-267h158v-229h-584zM473 743h164q127 0 184 48q78 66 78 174q0 113 -90 176q-59 43 -184 43h-152v-441z" />
<glyph unicode="Q" horiz-adv-x="1724" d="M41 729q0 305 218 523t523 218q313 0 534.5 -217t221.5 -528q0 -274 -172 -469q84 -57 166 -63v133h201v-365l-84 -6q-258 0 -443 145q-197 -129 -420 -129q-315 0 -530 221.5t-215 536.5zM322 766l6 -74q119 49 250 49q303 0 577 -299q100 117 100 273q0 201 -136 342 t-337 141q-203 0 -336 -145q-124 -129 -124 -287zM381 475q63 -111 173 -170t239 -59q113 0 198 53q-213 221 -430 221q-100 0 -180 -45z" />
<glyph unicode="R" horiz-adv-x="1284" d="M45 0v229h154v975h-154v230h639q123 0 210 -22.5t165 -88.5q172 -147 172 -377q0 -164 -99.5 -291t-257.5 -141l224 -285h162v-229h-334l-455 645v-416h123v-229h-549zM471 670h150q160 0 237 59q98 76 98 206t-94 204q-27 23 -64.5 34t-62 13t-76.5 2h-188v-518z" />
<glyph unicode="S" horiz-adv-x="1042" d="M41 1051q0 174 128 292.5t304 118.5q172 0 256 -108v80h209v-385h-246q-2 80 -54 133t-132 53q-82 0 -138.5 -48t-56.5 -132q0 -49 18.5 -84t62.5 -58.5t67.5 -33t87.5 -27.5q209 -57 305 -129q143 -115 143 -301q0 -195 -128 -323t-324 -128q-178 0 -277 123v-94h-217 v426h250q0 -92 58.5 -155.5t154.5 -63.5q90 0 150.5 53t60.5 143q0 41 -17.5 74t-36 52.5t-60.5 38t-62.5 25.5t-69.5 21q-66 20 -101.5 30.5t-85.5 35.5t-93 57q-156 115 -156 314z" />
<glyph unicode="T" horiz-adv-x="1204" d="M41 981v453h1126v-453h-215v209h-211v-961h156v-229h-586v229h156v961h-211v-209h-215z" />
<glyph unicode="U" horiz-adv-x="1404" d="M47 1204v230h557v-230h-131v-674q0 -137 43 -200q66 -100 197 -101q117 0 184 86q53 68 53 215v674h-131v230h557v-230h-153v-710q0 -123 -29 -211t-102 -166q-137 -145 -379 -146q-236 0 -369 133q-84 80 -113.5 174.5t-29.5 223.5v702h-154z" />
<glyph unicode="V" horiz-adv-x="1484" d="M14 1204v230h580v-230h-137l284 -827l303 827h-139v230h563v-230h-151l-438 -1204h-299l-412 1204h-154z" />
<glyph unicode="W" horiz-adv-x="2045" d="M14 1204v230h582v-230h-156l203 -753l258 983h232l274 -975l192 745h-159v230h581v-230h-159l-318 -1204h-260l-264 946l-266 -946h-254l-344 1204h-142z" />
<glyph unicode="X" horiz-adv-x="1484" d="M39 0v229h139l400 498l-377 477h-148v230h592v-211h-133l231 -305l230 305h-131v211h592v-230h-146l-385 -477l397 -498h148v-229h-590v211h141l-256 328l-260 -328h144v-211h-588z" />
<glyph unicode="Y" horiz-adv-x="1363" d="M14 1204v230h553v-230h-131l240 -473l239 473h-137v230h553v-230h-143l-377 -704v-271h156v-229h-584v229h156v271l-381 704h-144z" />
<glyph unicode="Z" horiz-adv-x="1122" d="M41 0v215l682 979h-406v-197h-243v437h979v-207l-688 -987h466v196h250v-436h-1040z" />
<glyph unicode="[" horiz-adv-x="761" d="M82 -258v1692h598v-232h-324v-1231h324v-229h-598z" />
<glyph unicode="\" horiz-adv-x="1243" d="M217 1434h203l610 -1434h-201z" />
<glyph unicode="]" horiz-adv-x="761" d="M82 -29h324v1231h-324v232h598v-1692h-598v229z" />
<glyph unicode="^" horiz-adv-x="1323" d="M76 350l495 1084h179l499 -1084h-184l-408 889l-399 -889h-182z" />
<glyph unicode="_" horiz-adv-x="1003" d="M0 -152h1004v-98h-1004v98z" />
<glyph unicode="`" horiz-adv-x="921" d="M143 1454l99 217l536 -289l-82 -178z" />
<glyph unicode="a" horiz-adv-x="1323" d="M25 530q0 233 163.5 401.5t397.5 168.5q219 0 334 -180v151h383v-227h-136v-615h136v-229h-383v145q-115 -174 -347 -174q-227 0 -387.5 165t-160.5 394zM276 530q0 -131 94.5 -225t225.5 -94q139 0 233.5 96t94.5 236q0 131 -95.5 224t-228.5 93q-137 0 -230.5 -97.5 t-93.5 -232.5z" />
<glyph unicode="b" horiz-adv-x="1323" d="M35 0v229h137v975h-137v230h383v-516q117 170 332 169q225 0 387.5 -162.5t162.5 -387.5q0 -221 -145 -379q-72 -80 -173 -127t-206 -47q-233 0 -358 176v-160h-383zM408 543q0 -141 96 -236.5t235 -95.5q133 0 225.5 98.5t92.5 231.5t-95.5 228t-229.5 95t-229 -94 t-95 -227z" />
<glyph unicode="c" d="M25 537q0 225 157.5 396t380.5 171q184 0 307 -135v102h211v-356h-229q-43 63 -113 106q-72 39 -153 39q-135 0 -226.5 -94t-91.5 -230.5t94.5 -229.5t229.5 -93q80 0 151.5 40t106.5 107h272q-51 -168 -202.5 -278.5t-329.5 -110.5q-236 0 -400.5 165t-164.5 401z" />
<glyph unicode="d" horiz-adv-x="1323" d="M25 537q0 225 159.5 389t382.5 164q102 0 196.5 -46.5t158.5 -128.5v289h-142v230h385v-1205h140v-229h-383v160q-119 -176 -353 -176q-221 0 -382.5 165t-161.5 388zM279 532q0 -133 94 -228t229 -95q137 0 231.5 97t94.5 235q0 131 -95.5 225t-226.5 94 q-137 0 -232 -96.5t-95 -231.5z" />
<glyph unicode="e" d="M27 532q0 238 160.5 405t396.5 167q111 0 217 -46t184 -126q152 -160 152 -402l-9 -86h-868q25 -111 116 -184.5t206 -73.5q172 0 260 129h254q-63 -156 -201.5 -250t-304.5 -94q-236 0 -399.5 162.5t-163.5 398.5zM258 633h651q-33 115 -125 183.5t-213 68.5 q-109 0 -199.5 -73t-113.5 -179z" />
<glyph unicode="f" horiz-adv-x="641" d="M35 0v229h137v615h-137v227h137q-2 199 104.5 299t311.5 100v-217q-90 0 -132 -47q-38 -43 -39 -120q0 -8 1 -15h139v-227h-139v-615h139v-229h-522z" />
<glyph unicode="g" horiz-adv-x="1323" d="M25 539q0 221 161.5 386t380.5 165q246 0 359 -175v156h362v-227h-137v-701q0 -145 -25.5 -238t-109.5 -177q-164 -164 -420 -164q-180 0 -325.5 90t-186.5 254h283q31 -63 98 -98t143 -35q141 0 228 98q47 57 60 110.5t13 139.5v39q-111 -178 -344 -178 q-225 0 -382.5 164t-157.5 391zM274 541q0 -137 95.5 -233.5t232.5 -96.5t231.5 97.5t94.5 234.5q0 133 -96.5 227t-231.5 94t-230.5 -95t-95.5 -228z" />
<glyph unicode="h" horiz-adv-x="1284" d="M35 0v229h137v975h-137v230h383v-523q104 184 321 185q188 0 303 -156q53 -76 70.5 -152.5t17.5 -189.5v-369h138v-229h-520v229h137v303v32v35q0 9 -1 30.5t-3 34t-6.5 31t-11.5 33.5t-13 28q-66 98 -197 98q-115 0 -184 -86q-25 -29 -37 -70t-13 -64.5t-1 -80.5v-324 h137v-229h-520z" />
<glyph unicode="i" horiz-adv-x="602" d="M39 0v229h139v615h-137v227h383v-842h137v-229h-522zM178 1174v260h246v-260h-246z" />
<glyph unicode="j" horiz-adv-x="561" d="M25 -176q49 2 83.5 20.5t51 40t26 63.5t10.5 68.5t1 79.5v21v727h-140v227h385v-1055q0 -209 -102 -308t-315 -111v227zM197 1174v260h245v-260h-245z" />
<glyph unicode="k" horiz-adv-x="1204" d="M35 0v229h139v975h-139v230h385v-842l274 274h-110v205h528v-227h-131l-295 -287l313 -328h168v-229h-583v229h90l-254 281v-281h96v-229h-481z" />
<glyph unicode="l" horiz-adv-x="602" d="M35 0v229h147v975h-137v230h383v-1205h137v-229h-530z" />
<glyph unicode="m" horiz-adv-x="1966" d="M41 0v229h137v615h-137v227h360v-160q113 186 310 187q111 0 198.5 -61.5t134.5 -164.5q43 100 140.5 163t210.5 63q188 0 309 -137q41 -45 59.5 -104.5t21.5 -100.5t3 -121v-406h139v-229h-522v229h139v344q0 133 -33 195q-59 88 -174 88q-117 0 -182 -80 q-33 -43 -41 -85t-8 -118v-344h139v-229h-522v229h137v328q0 145 -31 201q-53 98 -178 98q-104 0 -170 -78q-57 -70 -57 -219v-330h137v-229h-520z" />
<glyph unicode="n" horiz-adv-x="1284" d="M35 0v229h137v615h-137v227h383v-151q96 176 317 176q186 0 309 -133q41 -45 61.5 -100.5t25 -96.5t4.5 -117v-420h137v-229h-520v229h137v346q0 135 -41 193q-68 86 -191 86q-127 0 -194 -90q-45 -59 -45 -223v-312h137v-229h-520z" />
<glyph unicode="o" d="M25 541q0 233 164.5 398t400.5 165q231 0 395 -166t164 -395q0 -236 -165 -404t-400 -168q-231 0 -395 168.5t-164 401.5zM264 543q0 -135 93.5 -232.5t227.5 -97.5t228 94t94 230q0 131 -92 228t-225 97t-229.5 -94t-96.5 -225z" />
<glyph unicode="p" horiz-adv-x="1323" d="M35 -162h135v1006h-135v227h383v-168q117 180 350 180q227 0 387 -161.5t160 -389.5q0 -223 -157 -385.5t-378 -162.5q-233 0 -362 168v-314h137v-229h-520v229zM416 535q0 -135 94 -229.5t229 -94.5q131 0 226.5 94t95.5 226.5t-92 229.5t-224 97q-137 0 -233 -94 t-96 -229z" />
<glyph unicode="q" horiz-adv-x="1323" d="M25 532q0 225 160.5 388t385.5 163q233 0 351 -180v168h383v-227h-138v-1006h138v-229h-523v229h140v314q-129 -168 -365 -168q-219 0 -375.5 162.5t-156.5 385.5zM279 531.5q0 -132.5 95 -226.5t226 -94q135 0 229.5 94t94.5 230q0 137 -95.5 230t-234.5 93 q-133 0 -224 -97t-91 -229.5z" />
<glyph unicode="r" horiz-adv-x="761" d="M35 0v229h137v615h-137v227h364v-182q90 184 322 194v-249q-131 -6 -211 -80q-92 -78 -92 -254v-271h137v-229h-520z" />
<glyph unicode="s" horiz-adv-x="921" d="M47 770q0 150 105.5 237t257.5 87q166 0 241 -97v74h183v-291h-238q-2 57 -41 92t-98 35q-53 0 -94 -29.5t-41 -82.5q0 -37 15 -61.5t46 -41t52.5 -22.5t62.5 -17q70 -14 115.5 -28.5t105 -42t95.5 -61.5t59.5 -88t23.5 -124q0 -158 -112.5 -248t-270.5 -90 q-176 0 -276 117v-88h-189v311h252q6 -72 52 -115.5t120 -43.5q59 0 103.5 36.5t44.5 94.5q0 16 -3.5 30.5t-7.5 24.5t-14 19.5t-16.5 16.5t-20.5 14l-20 10q-6 3 -25.5 10.5t-25 8.5t-27 7t-23.5 6q-74 18 -115.5 30.5t-102 41t-92.5 61.5t-56.5 86t-24.5 121z" />
<glyph unicode="t" horiz-adv-x="681" d="M25 844v227h168v363h245v-363h183v-227h-183v-615h195v-229h-440v844h-168z" />
<glyph unicode="u" horiz-adv-x="1284" d="M27 844v227h383v-579q0 -139 41 -201q61 -92 182 -92q113 0 180 88q45 66 45 211v346h-137v227h383v-842h139v-229h-364v133q-51 -78 -139.5 -120t-184.5 -42q-182 0 -297 138q-94 111 -94 311v424h-137z" />
<glyph unicode="v" horiz-adv-x="1204" d="M14 844v227h500v-227h-108l196 -543h2l211 543h-115v227h494v-227h-127l-336 -844h-258l-328 844h-131z" />
<glyph unicode="w" horiz-adv-x="1765" d="M14 844v227h496v-227h-119l156 -504h2l223 692h201l209 -692h2l166 504h-123v227h506v-227h-144l-293 -844h-237l-195 631l-229 -631h-229l-256 844h-136z" />
<glyph unicode="x" horiz-adv-x="1243" d="M35 0v229h125l284 314l-278 301h-119v227h494v-188h-90l163 -187l162 187h-90v188h488v-227h-121l-273 -301l287 -314h125v-229h-506v201h84l-156 190l-159 -190h86v-201h-506z" />
<glyph unicode="y" horiz-adv-x="1204" d="M14 844v227h506v-227h-104l190 -525l203 525h-104v227h499v-227h-135l-416 -1006h142v-229h-523v229h136l71 176l-325 830h-140z" />
<glyph unicode="z" horiz-adv-x="921" d="M25 0v197l542 647h-305v-127h-213v354h821v-219l-516 -623h330v119h215v-348h-874z" />
<glyph unicode="{" horiz-adv-x="641" d="M72 592q55 10 102 45q29 20 42 52t14 51.5t1 66.5v330q0 168 60 227q37 35 97.5 51.5t90 17.5t109.5 1q-86 -27 -121 -80.5t-35 -147.5v-348q0 -117 -35 -180.5t-141 -85.5q102 -25 139 -83t37 -169v-373q0 -96 33 -147t123 -78h-41h-43q-10 0 -37 1t-41 4t-36.5 8 t-40 14.5t-36.5 21.5q-53 35 -67.5 86t-14.5 127v371q0 39 -1 57.5t-11 43t-31 48.5q-42 50 -116 68z" />
<glyph unicode="|" horiz-adv-x="1323" d="M569 -502v2007h185v-2007h-185z" />
<glyph unicode="}" horiz-adv-x="641" d="M74 -258q88 27 121.5 78t33.5 147v373q0 111 36 169t138 83q-104 23 -139 87t-35 179v348q0 94 -34.5 147.5t-120.5 78.5h103q50 0 103.5 -16.5t88.5 -51.5q61 -59 61 -227v-330q0 -47 1 -66.5t13.5 -51.5t40.5 -52q49 -35 103 -45q-72 -18 -117 -68q-20 -25 -29.5 -49 t-10.5 -42.5t-1 -57.5v-371q0 -76 -15.5 -127t-66.5 -86q-18 -12 -36.5 -21.5t-40 -14.5t-35 -8t-41 -4t-36.5 -1h-43h-42z" />
<glyph unicode="~" horiz-adv-x="1323" d="M80 631q74 117 151.5 183.5t188.5 66.5q92 0 260 -66.5t219 -66.5q23 0 42.5 7t32.5 15t33.5 30.5t26.5 31t25.5 37t21.5 30.5l146 -92q-39 -53 -53.5 -72.5t-51.5 -60.5t-63.5 -58.5t-69.5 -33t-90 -15.5q-74 0 -209 51l-96 37q-12 4 -40 15.5t-45 17.5t-42 11.5 t-43 5.5q-23 0 -41 -4.5t-35 -16.5l-29 -21q-12 -9 -28.5 -30t-22.5 -30t-22.5 -34.5t-20.5 -31.5z" />
<glyph unicode="&#xa1;" horiz-adv-x="401" d="M74 -362v1003h254v-1003h-254zM74 788v283h254v-283h-254z" />
<glyph unicode="&#xa2;" d="M119 713q0 164 107.5 300t267.5 167v198h200v-194q102 -27 168 -99v78h156v-323h-234q-25 49 -77 76.5t-109 27.5q-94 0 -160.5 -65.5t-66.5 -161.5t67.5 -160.5t165.5 -64.5q100 0 172 88h271q-37 -127 -129.5 -209t-223.5 -119v-195h-200v203q-160 29 -267.5 160 t-107.5 293z" />
<glyph unicode="&#xa3;" d="M27 602v201h133q-59 94 -60 211q0 188 136.5 318t314.5 130q133 0 235 -110v82h226v-398h-226q-4 90 -64 144.5t-144 54.5q-94 0 -159 -68.5t-65 -171.5q0 -106 76 -192h367v-201h-246q92 -117 92 -207q0 -119 -90 -184h123q125 0 176 41q70 55 70 164q0 35 -13 73h211 q20 -51 21 -106q0 -180 -137 -291q-109 -92 -314 -92h-577v211h147q59 10 94 52t35 106q0 47 -19.5 93t-36 68.5t-59.5 71.5h-247z" />
<glyph unicode="&#xa4;" d="M74 313l110 109q-82 111 -82 267.5t82 264.5l-108 107l139 139l104 -106q119 82 271 82q141 0 270 -80l105 104l139 -139l-107 -105q80 -113 80 -270q0 -133 -80 -266l107 -107l-139 -135l-105 105q-129 -84 -266 -84q-147 0 -272 84l-107 -105zM324 688.5 q0 -110.5 76.5 -189.5t187 -79t189.5 76.5t79 187.5q0 113 -78 191.5t-188.5 78.5t-188 -77.5t-77.5 -188z" />
<glyph unicode="&#xa5;" d="M0 1206v228h487v-228h-114l213 -477l211 477h-115v228h481v-228h-125l-168 -362h234v-115h-289l-43 -86h332v-115h-387l-12 -30v-269h139v-229h-514v229h135v269l-14 30h-394v115h336l-39 86h-297v115h242l-170 362h-129z" />
<glyph unicode="&#xa6;" horiz-adv-x="1323" d="M569 352h185v-704h-185v704zM569 651v705h185v-705h-185z" />
<glyph unicode="&#xa7;" horiz-adv-x="921" d="M74 82v31h215q-8 -82 41 -128t133 -46q76 0 128 39.5t52 111.5q0 35 -14.5 61.5t-30.5 43t-49 30t-52.5 18.5t-58.5 13q-342 80 -342 348q0 98 56.5 174t150.5 109q-197 74 -197 241q0 133 103.5 219.5t241.5 86.5q150 0 258 -85t106 -231h-205q8 55 -37 91t-104 36 q-61 0 -105.5 -38t-44.5 -99q0 -18 4.5 -34.5t14.5 -30t17 -23.5t24.5 -20.5t28 -16.5t32 -13t29.5 -10.5t32.5 -9.5t30.5 -8q131 -37 193 -92q109 -94 109 -242q0 -184 -181 -278q197 -70 197 -262q0 -145 -113.5 -237.5t-263.5 -92.5q-166 0 -276 92q-123 102 -123 252z M299 600q0 -66 49 -107.5t115 -41.5q63 0 111.5 44t48.5 105q0 63 -48.5 107.5t-113.5 44.5q-66 0 -114 -44.5t-48 -107.5z" />
<glyph unicode="&#xa8;" horiz-adv-x="921" d="M152 1174v260h245v-260h-245zM526 1174v260h244v-260h-244z" />
<glyph unicode="&#xa9;" horiz-adv-x="1644" d="M76 723q0 311 219 529t530 218q307 0 526.5 -217t219.5 -524q0 -317 -218 -537.5t-536 -220.5q-307 0 -524 222.5t-217 529.5zM176 725q0 -270 189.5 -459.5t459.5 -189.5q264 0 453.5 187.5t189.5 453.5q0 272 -188 460.5t-459 188.5q-266 0 -455.5 -188.5 t-189.5 -452.5zM399 715q0 201 126 330t327 129q129 0 240.5 -63.5t138.5 -180.5l-137 -33q-16 92 -82 142.5t-166 50.5q-147 0 -229 -108t-82 -260.5t78.5 -253.5t228.5 -101q201 0 268 202l121 -37q-41 -123 -155.5 -188t-250.5 -65q-193 0 -309.5 121.5t-116.5 314.5z " />
<glyph unicode="&#xaa;" horiz-adv-x="841" d="M27 1127.5q0 138.5 96 240.5t231 102q129 0 199 -90v74h242v-149h-82v-349h82v-147h-242v70q-70 -88 -197 -88q-137 0 -233 99t-96 237.5zM188 1128q0 -76 53.5 -128t127.5 -52q80 0 132 53.5t52 133.5q0 74 -52 127t-128 53q-78 0 -131.5 -54.5t-53.5 -132.5z" />
<glyph unicode="&#xab;" horiz-adv-x="720" d="M72 442v191l247 285l13 -232l-129 -158l129 -157l-13 -217zM395 442v183l246 288l10 -239l-123 -148l123 -149l-10 -213z" />
<glyph unicode="&#xac;" horiz-adv-x="1323" d="M78 780v187h1169v-617h-188v430h-981z" />
<glyph unicode="&#xad;" horiz-adv-x="641" d="M63 406v243h515v-243h-515z" />
<glyph unicode="&#xae;" horiz-adv-x="1644" d="M74 725q0 311 221 528t530.5 217t527.5 -219t218 -530t-220.5 -530.5t-531.5 -219.5q-309 0 -527 222.5t-218 531.5zM178 725q0 -274 188.5 -461.5t462.5 -187.5q264 0 451.5 191.5t187.5 457.5q0 268 -190.5 455.5t-458.5 187.5q-266 0 -453.5 -189.5t-187.5 -453.5z M516 285v891h408q141 0 213 -39q104 -61 104 -203q0 -121 -73.5 -181.5t-198.5 -64.5l256 -403h-148l-239 403h-195v-403h-127zM643 784h231q70 0 116 8.5t85 45t39 104.5q0 45 -19.5 77t-55 44t-69.5 17t-79 5h-248v-301z" />
<glyph unicode="&#xaf;" horiz-adv-x="1042" d="M143 1278v197h770v-197h-770z" />
<glyph unicode="&#xb0;" horiz-adv-x="802" d="M100 1170.5q0 123.5 88 211.5t213 88t213 -89t88 -212t-88 -212t-213 -89t-213 89.5t-88 213zM242 1169q0 -66 46 -110.5t113 -48.5q68 0 114 46t46 114.5t-46 114.5t-113.5 46t-113.5 -46t-46 -116z" />
<glyph unicode="&#xb1;" horiz-adv-x="1323" d="M152 205v184h1019v-184h-1019zM152 811v184h417v234h185v-234h417v-184h-417v-238h-185v238h-417z" />
<glyph unicode="&#xb2;" horiz-adv-x="698" d="M39 1167q-2 131 89 217t228 86q127 0 215 -81.5t88 -198.5q0 -59 -27.5 -112.5t-58 -84t-92.5 -80.5l-219 -186h240v90h151v-229h-610v139l334 299q2 2 21.5 18.5t23.5 20.5t18.5 20.5t19.5 24.5t14 23.5t12 28t3 26.5q0 55 -41.5 90t-99.5 35q-66 0 -105.5 -42 t-35.5 -104h-168z" />
<glyph unicode="&#xb3;" horiz-adv-x="698" d="M16 838h174q10 -53 50.5 -88t99.5 -35q61 0 105 41t44 96q0 66 -47 104.5t-116 38.5h-45v125h36q145 0 146 111q0 47 -33 76.5t-84 29.5q-47 0 -78.5 -27.5t-34.5 -70.5h-161q0 102 84 166.5t193.5 64.5t190.5 -61t81 -162q0 -55 -30 -104t-79 -74q72 -25 116 -86 t44 -135q0 -117 -98.5 -197t-223.5 -80q-133 0 -230.5 72t-103.5 195z" />
<glyph unicode="&#xb4;" horiz-adv-x="921" d="M143 1378l531 301l106 -215l-553 -260z" />
<glyph unicode="&#xb5;" horiz-adv-x="1284" d="M35 844v227h383v-579q0 -293 223 -293q12 0 32.5 3t56.5 19.5t64.5 43t50 82.5t21.5 130v367h-137v227h383v-842h139v-229h-364v133q-51 -78 -139.5 -120t-184.5 -42q-82 0 -145 29v-391h-246v1235h-137z" />
<glyph unicode="&#xb6;" horiz-adv-x="1083" d="M33 1073q0 166 121 273q61 51 127.5 69.5t162.5 18.5h641v-230h-137v-1462h-182v1462h-197v-1462h-180v975q-150 4 -253 105t-103 251z" />
<glyph unicode="&#xb7;" horiz-adv-x="602" d="M174 578v282h254v-282h-254z" />
<glyph unicode="&#xb8;" horiz-adv-x="720" d="M139 -354h148q18 -61 71 -62q35 0 55.5 21.5t20.5 53.5t-21.5 55.5t-54.5 23.5q-39 0 -67 -33l-121 49l96 246h158l-57 -139l26 2q80 0 135.5 -58.5t55.5 -142.5q0 -98 -64.5 -160.5t-163.5 -62.5q-90 0 -150.5 58.5t-66.5 148.5z" />
<glyph unicode="&#xb9;" horiz-adv-x="698" d="M135 1296v138h309v-723h109v-138h-391v138h108v585h-135z" />
<glyph unicode="&#xba;" horiz-adv-x="720" d="M33 1139q0 139 98 235t238 96q137 0 235 -97t98 -230q0 -141 -98 -241.5t-239 -100.5q-137 0 -234.5 99.5t-97.5 238.5zM190 1139q0 -76 51.5 -129.5t123.5 -53.5q76 0 128 52.5t52 128.5q0 72 -51.5 125t-124.5 53q-74 0 -126.5 -52t-52.5 -124z" />
<glyph unicode="&#xbb;" horiz-adv-x="720" d="M72 377l123 149l-123 148l12 239l244 -288v-183l-244 -278zM393 371l127 157l-127 158l10 232l248 -285v-191l-248 -288z" />
<glyph unicode="&#xbc;" horiz-adv-x="1744" d="M113 1296v138h309v-723h110v-138h-391v138h109v585h-137zM383 0l647 1434h197l-643 -1434h-201zM926 229v123l401 506h199v-506h139v-123h-139v-92h108v-137h-387v137h109v92h-430zM1114 352h242v312z" />
<glyph unicode="&#xbd;" horiz-adv-x="1744" d="M135 1296v138h309v-723h109v-138h-391v138h108v585h-135zM403 0l648 1434h196l-643 -1434h-201zM1047 580q-2 131 89 217t228 86q127 0 215 -82t88 -199q0 -59 -27.5 -112.5t-58.5 -84t-92 -79.5l-219 -187h239v90h152v-229h-610v139l333 299q2 2 21.5 18.5t24 20.5 t18.5 20.5t19.5 24.5t14.5 22.5t12 28t3 27.5q0 53 -42 89t-99 36q-66 0 -106 -42t-36 -103h-167z" />
<glyph unicode="&#xbe;" horiz-adv-x="1744" d="M20 838h175q10 -53 50 -88t99 -35q61 0 105.5 41t44.5 96q0 66 -47.5 104.5t-116.5 38.5h-45v125h37q145 0 145 111q0 47 -33 76.5t-84 29.5q-47 0 -78.5 -27.5t-33.5 -70.5h-162q0 102 84 166.5t193.5 64.5t190.5 -61t81 -162q0 -55 -30 -104t-79 -74q72 -25 116 -86 t44 -135q0 -117 -98.5 -197t-225.5 -80q-131 0 -228.5 72t-103.5 195zM453 0l647 1434h196l-643 -1434h-200zM965 229v123l401 506h199v-506h141v-123h-141v-92h108v-137h-387v137h109v92h-430zM1155 352h240v312z" />
<glyph unicode="&#xbf;" horiz-adv-x="1083" d="M72 70q0 92 31.5 161.5t78.5 114.5t96.5 86t89.5 100.5t52 135.5h252q0 -115 -49.5 -198t-151.5 -177q-39 -37 -51 -48.5t-39 -43t-35 -61t-8 -66.5q0 -84 60.5 -147.5t148.5 -63.5q98 0 157.5 65.5t61.5 163.5h258q4 -205 -135 -347t-344 -142q-193 0 -333 138.5 t-140 328.5zM420 788v283h252v-283h-252z" />
<glyph unicode="&#xc0;" horiz-adv-x="1564" d="M14 0v229h152l418 975h-158v230h479l502 -1205h152v-229h-605v201h160l-84 215h-504l-82 -215h154v-201h-584zM424 1817l98 217l537 -289l-82 -180zM596 627h365l-181 491h-2z" />
<glyph unicode="&#xc1;" horiz-adv-x="1564" d="M14 0v229h152l418 975h-158v230h479l502 -1205h152v-229h-605v201h160l-84 215h-504l-82 -215h154v-201h-584zM424 1741l530 301l107 -215l-553 -262zM596 627h365l-181 491h-2z" />
<glyph unicode="&#xc2;" horiz-adv-x="1564" d="M14 0v229h152l418 975h-158v230h479l502 -1205h152v-229h-605v201h160l-84 215h-504l-82 -215h154v-201h-584zM324 1628l346 336h170l346 -336h-277l-155 150l-154 -150h-276zM596 627h365l-181 491h-2z" />
<glyph unicode="&#xc3;" horiz-adv-x="1564" d="M14 0v229h152l418 975h-158v230h479l502 -1205h152v-229h-605v201h160l-84 215h-504l-82 -215h154v-201h-584zM365 1815q92 74 202 73q57 0 150 -28q86 -29 143 -29q94 0 156 53l119 -162q-102 -90 -226 -90q-57 0 -150 30t-130 30q-72 0 -135 -58zM596 627h365l-181 491 h-2z" />
<glyph unicode="&#xc4;" horiz-adv-x="1564" d="M14 0v229h152l418 975h-158v230h479l502 -1205h152v-229h-605v201h160l-84 215h-504l-82 -215h154v-201h-584zM434 1536v258h244v-258h-244zM596 627h365l-181 491h-2zM807 1536v258h246v-258h-246z" />
<glyph unicode="&#xc5;" horiz-adv-x="1564" d="M14 0v229h152l418 975h-158v230h479l502 -1205h152v-229h-605v201h160l-84 215h-504l-82 -215h154v-201h-584zM526 1800q0 96 70 165t166 69t164.5 -71t68.5 -167t-68.5 -165.5t-164.5 -69.5q-98 0 -167 69.5t-69 169.5zM596 627h365l-181 491h-2zM666 1794 q0 -37 28.5 -64.5t65.5 -27.5q41 0 67.5 28.5t26.5 69.5q0 39 -27.5 65.5t-66.5 26.5t-66.5 -28.5t-27.5 -69.5z" />
<glyph unicode="&#xc6;" horiz-adv-x="1966" d="M14 0v229h158l668 975h-152v230h1233v-433h-272v189h-365v-361h420v-206h-420v-381h365v192h272v-434h-1065v193h156v229h-424l-150 -229h156v-193h-580zM711 623h301v464h-2z" />
<glyph unicode="&#xc7;" horiz-adv-x="1523" d="M41 729q0 303 214 522t517 219q274 0 445 -176v146h225v-459h-262q-57 100 -167 159.5t-229 59.5q-203 0 -336 -135t-133 -338q0 -193 136.5 -333t328.5 -140q125 0 231.5 57.5t172.5 159.5h295q-66 -207 -246 -343t-397 -153l-48 -114l27 2q80 0 135.5 -58.5 t55.5 -142.5q0 -98 -64.5 -160.5t-163.5 -62.5q-90 0 -151.5 58.5t-67.5 148.5h150q18 -61 71 -62q35 0 54.5 21.5t19.5 53.5t-20.5 55.5t-53.5 23.5q-39 0 -67 -33l-121 49l88 226q-248 39 -424 213q-215 221 -215 536z" />
<glyph unicode="&#xc8;" d="M45 0v229h156v975h-156v230h1061v-433h-272v187h-361v-357h418v-213h-418v-378h361v194h272v-434h-1061zM262 1817l98 217l539 -289l-82 -180z" />
<glyph unicode="&#xc9;" d="M45 0v229h156v975h-156v230h1061v-433h-272v187h-361v-357h418v-213h-418v-378h361v194h272v-434h-1061zM262 1741l533 301l106 -215l-553 -262z" />
<glyph unicode="&#xca;" d="M45 0v229h156v975h-156v230h1061v-433h-272v187h-361v-357h418v-213h-418v-378h361v194h272v-434h-1061zM143 1628l346 336h168l349 -336h-277l-156 150l-153 -150h-277z" />
<glyph unicode="&#xcb;" d="M45 0v229h156v975h-156v230h1061v-433h-272v187h-361v-357h418v-213h-418v-378h361v194h272v-434h-1061zM272 1536v258h246v-258h-246zM647 1536v258h244v-258h-244z" />
<glyph unicode="&#xcc;" horiz-adv-x="681" d="M23 1817l98 217l536 -289l-82 -180zM45 0v229h156v975h-156v230h584v-230h-156v-975h156v-229h-584z" />
<glyph unicode="&#xcd;" horiz-adv-x="681" d="M23 1741l530 301l106 -215l-553 -262zM45 0v229h156v975h-156v230h584v-230h-156v-975h156v-229h-584z" />
<glyph unicode="&#xce;" horiz-adv-x="681" d="M-78 1628l346 336h170l346 -336h-276l-156 150l-153 -150h-277zM45 0v229h156v975h-156v230h584v-230h-156v-975h156v-229h-584z" />
<glyph unicode="&#xcf;" horiz-adv-x="681" d="M33 1536v258h243v-258h-243zM45 0v229h156v975h-156v230h584v-230h-156v-975h156v-229h-584zM406 1536v258h245v-258h-245z" />
<glyph unicode="&#xd0;" horiz-adv-x="1484" d="M45 0v229h156v389h-156v213h156v373h-156v230h680q158 0 276.5 -42t223.5 -147q203 -205 202 -532q0 -293 -184 -500q-190 -213 -522 -213h-676zM473 248h215q117 0 200 25.5t150 99.5q117 135 117 340q0 231 -125 362q-70 72 -146.5 93.5t-191.5 21.5h-219v-359h275 v-213h-275v-370z" />
<glyph unicode="&#xd1;" horiz-adv-x="1605" d="M45 0v229h154v975h-154v230h401l682 -961v731h-157v230h585v-230h-155v-1204h-254l-676 944v-715h158v-229h-584zM426 1815q92 74 203 73q55 0 147 -28q86 -29 146 -29q94 0 153 53l119 -162q-102 -90 -225 -90q-57 0 -149.5 30t-131.5 30q-70 0 -135 -58z" />
<glyph unicode="&#xd2;" horiz-adv-x="1564" d="M41 717q0 315 220 533t536 218q307 0 527 -217t220 -522q0 -315 -220 -537.5t-533 -222.5q-311 0 -530.5 219.5t-219.5 528.5zM322 725q0 -201 136 -341t333 -140q199 0 335 141t136 342q0 193 -137.5 331t-329.5 138q-197 0 -335 -137t-138 -334zM463 1817l98 217 l539 -289l-82 -180z" />
<glyph unicode="&#xd3;" horiz-adv-x="1564" d="M41 717q0 315 220 533t536 218q307 0 527 -217t220 -522q0 -315 -220 -537.5t-533 -222.5q-311 0 -530.5 219.5t-219.5 528.5zM322 725q0 -201 136 -341t333 -140q199 0 335 141t136 342q0 193 -137.5 331t-329.5 138q-197 0 -335 -137t-138 -334zM463 1741l532 301 l107 -215l-553 -262z" />
<glyph unicode="&#xd4;" horiz-adv-x="1564" d="M41 717q0 315 220 533t536 218q307 0 527 -217t220 -522q0 -315 -220 -537.5t-533 -222.5q-311 0 -530.5 219.5t-219.5 528.5zM322 725q0 -201 136 -341t333 -140q199 0 335 141t136 342q0 193 -137.5 331t-329.5 138q-197 0 -335 -137t-138 -334zM344 1628l346 336h168 l348 -336h-276l-156 150l-153 -150h-277z" />
<glyph unicode="&#xd5;" horiz-adv-x="1564" d="M41 717q0 315 220 533t536 218q307 0 527 -217t220 -522q0 -315 -220 -537.5t-533 -222.5q-311 0 -530.5 219.5t-219.5 528.5zM322 725q0 -201 136 -341t333 -140q199 0 335 141t136 342q0 193 -137.5 331t-329.5 138q-197 0 -335 -137t-138 -334zM406 1815q92 74 202 73 q55 0 148 -28q88 -29 145 -29q94 0 154 53l119 -162q-102 -90 -224 -90q-59 0 -151 30t-131 30q-70 0 -133 -58z" />
<glyph unicode="&#xd6;" horiz-adv-x="1564" d="M41 717q0 315 220 533t536 218q307 0 527 -217t220 -522q0 -315 -220 -537.5t-533 -222.5q-311 0 -530.5 219.5t-219.5 528.5zM322 725q0 -201 136 -341t333 -140q199 0 335 141t136 342q0 193 -137.5 331t-329.5 138q-197 0 -335 -137t-138 -334zM473 1536v258h246v-258 h-246zM848 1536v258h244v-258h-244z" />
<glyph unicode="&#xd7;" horiz-adv-x="1323" d="M182 369l350 350l-350 348l131 131l349 -348l350 348l131 -131l-350 -348l350 -350l-131 -129l-350 348l-349 -348z" />
<glyph unicode="&#xd8;" horiz-adv-x="1564" d="M43 719q0 315 219 533t533 218q176 0 358 -96l27 -16l143 176l152 -121l-142 -174q203 -221 203 -526q0 -311 -223 -526.5t-537 -215.5q-176 0 -315 72l-70 35l-143 -180l-152 120l150 183q-203 217 -203 518zM319 717q0 -143 109 -289l578 711q-131 61 -226 61 q-193 0 -327 -144t-134 -339zM571 301q131 -57 217 -57q199 0 334 138t135 337q0 90 -23.5 154.5t-78.5 142.5z" />
<glyph unicode="&#xd9;" horiz-adv-x="1404" d="M47 1204v230h557v-230h-131v-674q0 -137 43 -200q66 -100 197 -101q117 0 184 86q53 68 53 215v674h-131v230h557v-230h-153v-710q0 -123 -29 -211t-102 -166q-137 -145 -379 -146q-236 0 -369 133q-84 80 -113.5 174.5t-29.5 223.5v702h-154zM383 1817l98 217l539 -289 l-82 -180z" />
<glyph unicode="&#xda;" horiz-adv-x="1404" d="M47 1204v230h557v-230h-131v-674q0 -137 43 -200q66 -100 197 -101q117 0 184 86q53 68 53 215v674h-131v230h557v-230h-153v-710q0 -123 -29 -211t-102 -166q-137 -145 -379 -146q-236 0 -369 133q-84 80 -113.5 174.5t-29.5 223.5v702h-154zM383 1741l532 301l107 -215 l-555 -262z" />
<glyph unicode="&#xdb;" horiz-adv-x="1404" d="M47 1204v230h557v-230h-131v-674q0 -137 43 -200q66 -100 197 -101q117 0 184 86q53 68 53 215v674h-131v230h557v-230h-153v-710q0 -123 -29 -211t-102 -166q-137 -145 -379 -146q-236 0 -369 133q-84 80 -113.5 174.5t-29.5 223.5v702h-154zM283 1628l348 336h168 l348 -336h-279l-153 150l-156 -150h-276z" />
<glyph unicode="&#xdc;" horiz-adv-x="1404" d="M47 1204v230h557v-230h-131v-674q0 -137 43 -200q66 -100 197 -101q117 0 184 86q53 68 53 215v674h-131v230h557v-230h-153v-710q0 -123 -29 -211t-102 -166q-137 -145 -379 -146q-236 0 -369 133q-84 80 -113.5 174.5t-29.5 223.5v702h-154zM414 1536v258h243v-258 h-243zM786 1536v258h246v-258h-246z" />
<glyph unicode="&#xdd;" horiz-adv-x="1363" d="M14 1204v230h553v-230h-131l240 -473l239 473h-137v230h553v-230h-143l-377 -704v-271h156v-229h-584v229h156v271l-381 704h-144zM362 1741l533 301l106 -215l-552 -262z" />
<glyph unicode="&#xde;" horiz-adv-x="1204" d="M47 0v229h154v975h-154v230h584v-230h-158v-78h143q129 0 222.5 -16t173.5 -58t121 -125t41 -208q0 -209 -136.5 -305.5t-367.5 -96.5h-197v-88h158v-229h-584zM473 537h164q131 0 196.5 36.5t65.5 145.5q0 111 -72.5 149.5t-201.5 38.5h-152v-370z" />
<glyph unicode="&#xdf;" horiz-adv-x="1204" d="M25 0v229h139v717q0 113 23.5 197t86.5 160q68 78 160 122.5t172 44.5q178 0 303 -116.5t125 -296.5q0 -92 -44 -168t-128 -111q143 -23 223 -128t80 -255q0 -188 -118.5 -308t-294.5 -120q-102 0 -205 39v230q76 -43 155 -43q90 0 155 61t65 152q0 119 -91.5 175 t-216.5 56h-55v215h33q84 0 138 52t54 138q0 80 -50 132.5t-124 52.5q-94 0 -159 -90q-18 -29 -28.5 -67t-11.5 -60.5t-1 -73.5v-936h-385z" />
<glyph unicode="&#xe0;" horiz-adv-x="1323" d="M25 530q0 233 163.5 401.5t397.5 168.5q219 0 334 -180v151h383v-227h-136v-615h136v-229h-383v145q-115 -174 -347 -174q-227 0 -387.5 165t-160.5 394zM276 530q0 -131 94.5 -225t225.5 -94q139 0 233.5 96t94.5 236q0 131 -95.5 224t-228.5 93q-137 0 -230.5 -97.5 t-93.5 -232.5zM344 1454l98 217l537 -289l-82 -178z" />
<glyph unicode="&#xe1;" horiz-adv-x="1323" d="M25 530q0 233 163.5 401.5t397.5 168.5q219 0 334 -180v151h383v-227h-136v-615h136v-229h-383v145q-115 -174 -347 -174q-227 0 -387.5 165t-160.5 394zM276 530q0 -131 94.5 -225t225.5 -94q139 0 233.5 96t94.5 236q0 131 -95.5 224t-228.5 93q-137 0 -230.5 -97.5 t-93.5 -232.5zM344 1378l530 301l107 -215l-553 -260z" />
<glyph unicode="&#xe2;" horiz-adv-x="1323" d="M25 530q0 233 163.5 401.5t397.5 168.5q219 0 334 -180v151h383v-227h-136v-615h136v-229h-383v145q-115 -174 -347 -174q-227 0 -387.5 165t-160.5 394zM223 1247l346 336h170l346 -336h-276l-156 150l-153 -150h-277zM276 530q0 -131 94.5 -225t225.5 -94 q139 0 233.5 96t94.5 236q0 131 -95.5 224t-228.5 93q-137 0 -230.5 -97.5t-93.5 -232.5z" />
<glyph unicode="&#xe3;" horiz-adv-x="1323" d="M25 530q0 233 163.5 401.5t397.5 168.5q219 0 334 -180v151h383v-227h-136v-615h136v-229h-383v145q-115 -174 -347 -174q-227 0 -387.5 165t-160.5 394zM264 1454q92 74 203 74q57 0 149 -29q86 -31 144 -31q94 0 155 56l119 -164q-102 -90 -225 -90q-57 0 -150.5 30.5 t-130.5 30.5q-72 0 -135 -59zM276 530q0 -131 94.5 -225t225.5 -94q139 0 233.5 96t94.5 236q0 131 -95.5 224t-228.5 93q-137 0 -230.5 -97.5t-93.5 -232.5z" />
<glyph unicode="&#xe4;" horiz-adv-x="1323" d="M25 530q0 233 163.5 401.5t397.5 168.5q219 0 334 -180v151h383v-227h-136v-615h136v-229h-383v145q-115 -174 -347 -174q-227 0 -387.5 165t-160.5 394zM276 530q0 -131 94.5 -225t225.5 -94q139 0 233.5 96t94.5 236q0 131 -95.5 224t-228.5 93q-137 0 -230.5 -97.5 t-93.5 -232.5zM334 1174v260h244v-260h-244zM707 1174v260h245v-260h-245z" />
<glyph unicode="&#xe5;" horiz-adv-x="1323" d="M25 530q0 233 163.5 401.5t397.5 168.5q219 0 334 -180v151h383v-227h-136v-615h136v-229h-383v145q-115 -174 -347 -174q-227 0 -387.5 165t-160.5 394zM276 530q0 -131 94.5 -225t225.5 -94q139 0 233.5 96t94.5 236q0 131 -95.5 224t-228.5 93q-137 0 -230.5 -97.5 t-93.5 -232.5zM385 1440q0 96 70.5 163.5t167 67.5t164 -69.5t67.5 -166t-67.5 -166t-163.5 -69.5q-98 0 -168 70t-70 170zM526 1434q0 -39 28 -66t67 -27t66.5 29t27.5 70q0 37 -29 64.5t-65 27.5q-41 0 -68 -29.5t-27 -68.5z" />
<glyph unicode="&#xe6;" horiz-adv-x="2086" d="M27 549q0 221 162.5 388t385.5 167q211 0 343 -168v135h243v-149q125 182 346 182q227 0 388 -167t161 -390q0 -94 -4 -94h-872q20 -104 110 -173t201 -69q139 0 244 111h282q-66 -160 -209 -255.5t-313 -95.5q-102 0 -191.5 51.5t-142.5 137.5v-160h-243v164 q-51 -90 -135.5 -141.5t-186.5 -51.5q-238 0 -403.5 169t-165.5 409zM270 551q0 -141 95.5 -240.5t234.5 -99.5q145 0 243.5 96t98.5 242q0 131 -102.5 228t-235.5 97q-131 0 -232.5 -97t-101.5 -226zM1178 641h628q-33 102 -118.5 167.5t-192.5 65.5q-115 0 -196.5 -62 t-120.5 -171z" />
<glyph unicode="&#xe7;" d="M25 537q0 225 157.5 396t380.5 171q184 0 307 -135v102h211v-356h-229q-43 63 -113 106q-72 39 -153 39q-135 0 -226.5 -94t-91.5 -230.5t94.5 -229.5t229.5 -93q80 0 151.5 40t106.5 107h272q-45 -152 -176 -258t-291 -125l-47 -116l27 2q80 0 135 -58.5t55 -142.5 q0 -98 -64.5 -160.5t-162.5 -62.5q-90 0 -151.5 58.5t-67.5 148.5h149q18 -61 72 -62q35 0 54.5 21.5t19.5 53.5t-20.5 55.5t-53.5 23.5q-41 0 -68 -33l-120 49l88 228q-205 33 -340 189.5t-135 365.5z" />
<glyph unicode="&#xe8;" d="M27 532q0 238 160.5 405t396.5 167q111 0 217 -46t184 -126q152 -160 152 -402l-9 -86h-868q25 -111 116 -184.5t206 -73.5q172 0 260 129h254q-63 -156 -201.5 -250t-304.5 -94q-236 0 -399.5 162.5t-163.5 398.5zM244 1454l98 217l537 -289l-82 -178zM258 633h651 q-33 115 -125 183.5t-213 68.5q-109 0 -199.5 -73t-113.5 -179z" />
<glyph unicode="&#xe9;" d="M27 532q0 238 160.5 405t396.5 167q111 0 217 -46t184 -126q152 -160 152 -402l-9 -86h-868q25 -111 116 -184.5t206 -73.5q172 0 260 129h254q-63 -156 -201.5 -250t-304.5 -94q-236 0 -399.5 162.5t-163.5 398.5zM258 633h651q-33 115 -125 183.5t-213 68.5 q-109 0 -199.5 -73t-113.5 -179zM262 1378l533 301l106 -215l-553 -260z" />
<glyph unicode="&#xea;" d="M27 532q0 238 160.5 405t396.5 167q111 0 217 -46t184 -126q152 -160 152 -402l-9 -86h-868q25 -111 116 -184.5t206 -73.5q172 0 260 129h254q-63 -156 -201.5 -250t-304.5 -94q-236 0 -399.5 162.5t-163.5 398.5zM143 1247l346 336h168l349 -336h-277l-156 150 l-153 -150h-277zM258 633h651q-33 115 -125 183.5t-213 68.5q-109 0 -199.5 -73t-113.5 -179z" />
<glyph unicode="&#xeb;" d="M27 532q0 238 160.5 405t396.5 167q111 0 217 -46t184 -126q152 -160 152 -402l-9 -86h-868q25 -111 116 -184.5t206 -73.5q172 0 260 129h254q-63 -156 -201.5 -250t-304.5 -94q-236 0 -399.5 162.5t-163.5 398.5zM252 1174v260h246v-260h-246zM258 633h651 q-33 115 -125 183.5t-213 68.5q-109 0 -199.5 -73t-113.5 -179zM627 1174v260h243v-260h-243z" />
<glyph unicode="&#xec;" horiz-adv-x="602" d="M-18 1454l98 217l538 -289l-81 -178zM39 0v229h139v615h-137v227h383v-842h137v-229h-522z" />
<glyph unicode="&#xed;" horiz-adv-x="602" d="M-18 1378l532 301l107 -215l-555 -260zM39 0v229h139v615h-137v227h383v-842h137v-229h-522z" />
<glyph unicode="&#xee;" horiz-adv-x="602" d="M-139 1247l348 336h168l348 -336h-276l-156 150l-154 -150h-278zM39 0v229h139v615h-137v227h383v-842h137v-229h-522z" />
<glyph unicode="&#xef;" horiz-adv-x="602" d="M-8 1174v260h246v-260h-246zM39 0v229h139v615h-137v227h383v-842h137v-229h-522zM365 1174v260h245v-260h-245z" />
<glyph unicode="&#xf0;" d="M25 541q0 233 164.5 398t400.5 165q49 0 86 -8q-53 51 -111 88l-289 -86l-163 106l274 84q-96 47 -203 78l287 80q82 -25 176 -78l248 78l164 -115l-252 -76q342 -283 342 -712q0 -236 -165 -404t-400 -168q-231 0 -395 168.5t-164 401.5zM264 543q0 -135 93.5 -232.5 t227.5 -97.5t228 94t94 230q0 131 -92 228t-225 97t-229.5 -94t-96.5 -225z" />
<glyph unicode="&#xf1;" horiz-adv-x="1284" d="M35 0v229h137v615h-137v227h383v-151q96 176 317 176q186 0 309 -133q41 -45 61.5 -100.5t25 -96.5t4.5 -117v-420h137v-229h-520v229h137v346q0 135 -41 193q-68 86 -191 86q-127 0 -194 -90q-45 -59 -45 -223v-312h137v-229h-520zM264 1454q92 74 203 74q57 0 149 -29 q86 -31 144 -31q94 0 155 56l119 -164q-102 -90 -225 -90q-57 0 -150.5 30.5t-130.5 30.5q-72 0 -135 -59z" />
<glyph unicode="&#xf2;" d="M25 541q0 233 164.5 398t400.5 165q231 0 395 -166t164 -395q0 -236 -165 -404t-400 -168q-231 0 -395 168.5t-164 401.5zM262 1454l98 217l539 -289l-82 -178zM264 543q0 -135 93.5 -232.5t227.5 -97.5t228 94t94 230q0 131 -92 228t-225 97t-229.5 -94t-96.5 -225z" />
<glyph unicode="&#xf3;" d="M25 541q0 233 164.5 398t400.5 165q231 0 395 -166t164 -395q0 -236 -165 -404t-400 -168q-231 0 -395 168.5t-164 401.5zM262 1378l533 301l106 -215l-553 -260zM264 543q0 -135 93.5 -232.5t227.5 -97.5t228 94t94 230q0 131 -92 228t-225 97t-229.5 -94t-96.5 -225z " />
<glyph unicode="&#xf4;" d="M25 541q0 233 164.5 398t400.5 165q231 0 395 -166t164 -395q0 -236 -165 -404t-400 -168q-231 0 -395 168.5t-164 401.5zM162 1247l348 336h168l348 -336h-276l-156 150l-154 -150h-278zM264 543q0 -135 93.5 -232.5t227.5 -97.5t228 94t94 230q0 131 -92 228t-225 97 t-229.5 -94t-96.5 -225z" />
<glyph unicode="&#xf5;" d="M25 541q0 233 164.5 398t400.5 165q231 0 395 -166t164 -395q0 -236 -165 -404t-400 -168q-231 0 -395 168.5t-164 401.5zM205 1454q92 74 203 74q55 0 147 -29q88 -31 145 -31q94 0 154 56l119 -164q-102 -90 -223 -90q-59 0 -151.5 30.5t-131.5 30.5q-70 0 -133 -59z M264 543q0 -135 93.5 -232.5t227.5 -97.5t228 94t94 230q0 131 -92 228t-225 97t-229.5 -94t-96.5 -225z" />
<glyph unicode="&#xf6;" d="M25 541q0 233 164.5 398t400.5 165q231 0 395 -166t164 -395q0 -236 -165 -404t-400 -168q-231 0 -395 168.5t-164 401.5zM252 1174v260h246v-260h-246zM264 543q0 -135 93.5 -232.5t227.5 -97.5t228 94t94 230q0 131 -92 228t-225 97t-229.5 -94t-96.5 -225zM627 1174 v260h243v-260h-243z" />
<glyph unicode="&#xf7;" horiz-adv-x="1323" d="M152 627v184h1019v-184h-1019zM569 281v219h185v-219h-185zM569 938v217h185v-217h-185z" />
<glyph unicode="&#xf8;" horiz-adv-x="1204" d="M25 535q0 236 167.5 402.5t407.5 166.5q152 0 262 -62l101 136l143 -109l-100 -131q160 -172 159 -383q0 -242 -161.5 -413t-405.5 -171q-121 0 -266 62l-107 -144l-139 107l104 143l-14 13q-76 94 -100 145q-51 117 -51 238zM266 541q0 -111 78 -203l371 502 q-74 27 -123 26q-139 0 -232.5 -94t-93.5 -231zM485 233q72 -25 109 -24q141 0 236.5 93t95.5 235q0 100 -74 192z" />
<glyph unicode="&#xf9;" horiz-adv-x="1284" d="M27 844v227h383v-579q0 -139 41 -201q61 -92 182 -92q113 0 180 88q45 66 45 211v346h-137v227h383v-842h139v-229h-364v133q-51 -78 -139.5 -120t-184.5 -42q-182 0 -297 138q-94 111 -94 311v424h-137zM303 1454l98 217l539 -289l-84 -178z" />
<glyph unicode="&#xfa;" horiz-adv-x="1284" d="M27 844v227h383v-579q0 -139 41 -201q61 -92 182 -92q113 0 180 88q45 66 45 211v346h-137v227h383v-842h139v-229h-364v133q-51 -78 -139.5 -120t-184.5 -42q-182 0 -297 138q-94 111 -94 311v424h-137zM303 1378l533 301l106 -215l-555 -260z" />
<glyph unicode="&#xfb;" horiz-adv-x="1284" d="M27 844v227h383v-579q0 -139 41 -201q61 -92 182 -92q113 0 180 88q45 66 45 211v346h-137v227h383v-842h139v-229h-364v133q-51 -78 -139.5 -120t-184.5 -42q-182 0 -297 138q-94 111 -94 311v424h-137zM182 1247l348 336h168l349 -336h-279l-154 150l-155 -150h-277z " />
<glyph unicode="&#xfc;" horiz-adv-x="1284" d="M27 844v227h383v-579q0 -139 41 -201q61 -92 182 -92q113 0 180 88q45 66 45 211v346h-137v227h383v-842h139v-229h-364v133q-51 -78 -139.5 -120t-184.5 -42q-182 0 -297 138q-94 111 -94 311v424h-137zM313 1174v260h244v-260h-244zM686 1174v260h246v-260h-246z" />
<glyph unicode="&#xfd;" horiz-adv-x="1204" d="M14 844v227h506v-227h-104l190 -525l203 525h-104v227h499v-227h-135l-416 -1006h142v-229h-523v229h136l71 176l-325 830h-140zM283 1378l532 301l107 -215l-555 -260z" />
<glyph unicode="&#xfe;" horiz-adv-x="1323" d="M35 -162h135v1366h-135v230h383v-531q117 180 350 180q227 0 387 -161.5t160 -389.5q0 -223 -157 -385.5t-378 -162.5q-233 0 -362 168v-314h137v-229h-520v229zM416 535q0 -135 94 -229.5t229 -94.5q131 0 226.5 94t95.5 226.5t-92 229.5t-224 97q-137 0 -233 -94 t-96 -229z" />
<glyph unicode="&#xff;" horiz-adv-x="1204" d="M14 844v227h506v-227h-104l190 -525l203 525h-104v227h499v-227h-135l-416 -1006h142v-229h-523v229h136l71 176l-325 830h-140zM293 1174v260h246v-260h-246zM666 1174v260h245v-260h-245z" />
<glyph unicode="&#x131;" horiz-adv-x="602" d="M39 0v229h139v615h-137v227h383v-842h137v-229h-522z" />
<glyph unicode="&#x152;" horiz-adv-x="2207" d="M41 723q0 305 216 526t519 221q301 0 479 -243v207h906v-424h-273v184h-360v-360h407v-216h-407v-376h360v190h273v-432h-906v213q-166 -242 -473 -242q-315 0 -528 218.5t-213 533.5zM313 715q0 -193 136.5 -331t328.5 -138q190 0 327.5 139t137.5 332q0 195 -134 339 t-327 144q-199 0 -334 -142t-135 -343z" />
<glyph unicode="&#x153;" horiz-adv-x="2086" d="M27 541q0 233 169 398t406 165q152 0 289 -80q86 -49 149 -139l11 -17q70 113 189.5 172.5t260.5 59.5q231 0 399 -163t168 -390l-8 -94h-880q25 -106 111.5 -173t201.5 -67q158 0 260 115h279q-68 -164 -212.5 -260.5t-322.5 -96.5q-139 0 -256 58.5t-190 171.5 q-68 -111 -189 -170.5t-258 -59.5q-242 0 -409.5 166t-167.5 404zM260 537.5q0 -134.5 99.5 -230.5t236.5 -96q139 0 237.5 96t98.5 232.5t-99.5 231.5t-238.5 95q-137 0 -235.5 -97t-98.5 -231.5zM1186 637h618q-41 109 -123 168t-196 59q-102 0 -186 -64.5t-113 -162.5z " />
<glyph unicode="&#x178;" horiz-adv-x="1363" d="M14 1204v230h553v-230h-131l240 -473l239 473h-137v230h553v-230h-143l-377 -704v-271h156v-229h-584v229h156v271l-381 704h-144zM352 1536v258h246v-258h-246zM727 1536v258h244v-258h-244z" />
<glyph unicode="&#x192;" d="M123 -285l37 201q109 2 148.5 46t58.5 149l116 608h-139l41 213h139q2 14 17.5 99t24.5 117t36 89t62 98q129 133 378 133l-38 -198q-63 2 -107.5 -17.5t-64 -59.5t-28.5 -78t-18.5 -97.5t-17.5 -87.5h141l-41 -211h-139l-117 -608q-39 -203 -153.5 -298.5t-335.5 -97.5z " />
<glyph unicode="&#x2c6;" d="M143 1266l346 338h168l349 -338h-277l-156 151l-153 -151h-277z" />
<glyph unicode="&#x2c7;" d="M143 1604h291l158 -150l149 150h277l-350 -338h-183z" />
<glyph unicode="&#x2d8;" horiz-adv-x="1042" d="M147 1599h166q6 -70 73 -105.5t146 -35.5q76 0 144.5 36t75.5 105h163q2 -156 -109.5 -242.5t-274 -86.5t-273.5 86.5t-111 242.5z" />
<glyph unicode="&#x2d9;" horiz-adv-x="520" d="M139 1174v260h244v-260h-244z" />
<glyph unicode="&#x2da;" horiz-adv-x="761" d="M145 1440q0 96 70 163.5t166 67.5t164.5 -69.5t68.5 -166t-68.5 -166t-164.5 -69.5q-98 0 -167 70t-69 170zM285 1434q0 -39 28.5 -66t65.5 -27q41 0 67.5 29t26.5 70q0 37 -27.5 64.5t-66.5 27.5t-66.5 -29.5t-27.5 -68.5z" />
<glyph unicode="&#x2db;" horiz-adv-x="681" d="M207 -190q0 115 69 190h156q-57 -43 -57 -115q0 -53 27.5 -98t76.5 -45q16 0 53 14v-147q-72 -23 -114 -23q-98 0 -154.5 62t-56.5 162z" />
<glyph unicode="&#x2dc;" horiz-adv-x="1042" d="M145 1454q92 74 203 74q55 0 148 -29q86 -31 145 -31q94 0 154 56l118 -164q-102 -90 -225 -90q-57 0 -149.5 30.5t-130.5 30.5q-70 0 -136 -59z" />
<glyph unicode="&#x2dd;" horiz-adv-x="962" d="M143 1241l189 445l180 -66l-225 -438zM457 1239l188 447l180 -66l-223 -438z" />
<glyph unicode="&#x3a9;" horiz-adv-x="1480" d="M82 0v199h289v6q-113 102 -186.5 253.5t-73.5 338.5q0 283 178 476t456 193q143 0 264 -57t196 -152.5t117 -211t42 -236.5q0 -190 -76 -348t-186 -256v-6h293v-199h-543v147q113 74 188.5 227.5t75.5 381.5q0 207 -99 356.5t-272.5 149.5t-279 -144.5t-105.5 -367.5 q0 -215 77 -375t190 -228v-147h-545z" />
<glyph unicode="&#x3c0;" horiz-adv-x="1241" d="M10 1016q92 68 336 67h866l-20 -209h-150v-565q0 -201 27 -309h-238q-37 63 -36 295v579h-303q-8 -199 -46 -463t-92 -411h-237q51 174 90 434t43 440q-139 0 -209 -22z" />
<glyph unicode="&#x2000;" horiz-adv-x="1003" />
<glyph unicode="&#x2001;" horiz-adv-x="2007" />
<glyph unicode="&#x2002;" horiz-adv-x="1003" />
<glyph unicode="&#x2003;" horiz-adv-x="2007" />
<glyph unicode="&#x2004;" horiz-adv-x="667" />
<glyph unicode="&#x2005;" horiz-adv-x="501" />
<glyph unicode="&#x2006;" horiz-adv-x="331" />
<glyph unicode="&#x2007;" />
<glyph unicode="&#x2008;" horiz-adv-x="602" />
<glyph unicode="&#x2009;" horiz-adv-x="200" />
<glyph unicode="&#x200a;" horiz-adv-x="18" />
<glyph unicode="&#x200b;" horiz-adv-x="0" />
<glyph unicode="&#x200c;" horiz-adv-x="0" />
<glyph unicode="&#x200d;" horiz-adv-x="0" />
<glyph unicode="&#x200e;" horiz-adv-x="667" />
<glyph unicode="&#x200f;" horiz-adv-x="667" />
<glyph unicode="&#x2010;" horiz-adv-x="641" d="M63 406v243h515v-243h-515z" />
<glyph unicode="&#x2011;" horiz-adv-x="641" d="M63 406v243h515v-243h-515z" />
<glyph unicode="&#x2012;" d="M63 406v243h1037v-243h-1037z" />
<glyph unicode="&#x2013;" horiz-adv-x="1003" d="M-12 406v243h1028v-243h-1028z" />
<glyph unicode="&#x2014;" horiz-adv-x="2007" d="M-12 406v243h2031v-243h-2031z" />
<glyph unicode="&#x2015;" horiz-adv-x="4014" d="M63 406v243h3888v-243h-3888z" />
<glyph unicode="&#x2016;" horiz-adv-x="2648" d="M1894 -502v2007h185v-2007h-185zM569 -502v2007h185v-2007h-185z" />
<glyph unicode="&#x2018;" horiz-adv-x="401" d="M72 860v324q0 129 49 188q31 41 67.5 51.5t98.5 10.5h39v-138l-25 2q-39 0 -58.5 -21.5t-22.5 -43t-3 -62.5v-26h109v-285h-254z" />
<glyph unicode="&#x2019;" horiz-adv-x="401" d="M70 1151v283h256v-324q0 -127 -52 -186q-31 -41 -67.5 -52.5t-95.5 -11.5h-39v137l24 -2q39 0 58.5 21.5t22.5 44t3 63.5v27h-110z" />
<glyph unicode="&#x201a;" horiz-adv-x="401" d="M72 0v283h254v-322q0 -129 -50 -188q-31 -39 -68.5 -50.5t-96.5 -11.5h-39v137h26q39 0 57.5 20.5t21.5 43t3 61.5v27h-108z" />
<glyph unicode="&#x201c;" horiz-adv-x="761" d="M70 860v324q0 47 2 69.5t13 57.5t36 61q31 39 68.5 50.5t97.5 11.5h39v-138l-27 2q-39 0 -57.5 -21.5t-21.5 -44t-3 -63.5v-24h109v-285h-256zM442 860v324q0 125 50 188q33 41 68.5 51.5t96.5 10.5h39v-138l-26 2q-37 0 -56.5 -21.5t-22.5 -43t-3 -62.5v-26h108v-285 h-254z" />
<glyph unicode="&#x201d;" horiz-adv-x="761" d="M70 1151v283h256v-324q0 -127 -52 -186q-31 -41 -67.5 -52.5t-95.5 -11.5h-39v137l24 -2q39 0 58.5 21.5t22.5 44t3 63.5v27h-110zM442 1151v283h254v-324q0 -127 -49 -186q-33 -41 -68.5 -52.5t-97.5 -11.5h-37v137l23 -2q39 0 59.5 21.5t23.5 44t3 63.5v27h-111z" />
<glyph unicode="&#x201e;" horiz-adv-x="761" d="M70 0v283h254v-324q0 -129 -50 -188q-31 -37 -67.5 -48.5t-95.5 -11.5h-39v137l24 -2q39 0 58.5 20.5t22.5 44t3 62.5v27h-110zM442 0v283h252v-322q0 -45 -2 -69.5t-13 -58.5t-32 -60q-33 -39 -68.5 -50.5t-97.5 -11.5h-37v137h23q39 0 59.5 20.5t23.5 43t3 61.5v27 h-111z" />
<glyph unicode="&#x2020;" d="M63 827v191h388v416h262v-416h387v-191h-387v-1089h-262v1089h-388z" />
<glyph unicode="&#x2021;" d="M66 453v192h383v207h-383v192h383v390h264v-390h385v-192h-385v-207h385v-192h-385v-715h-264v715h-383z" />
<glyph unicode="&#x2022;" horiz-adv-x="1204" d="M283 358v717h639v-717h-639z" />
<glyph unicode="&#x2024;" horiz-adv-x="602" d="M174 0v283h254v-283h-254z" />
<glyph unicode="&#x2025;" horiz-adv-x="1204" d="M776 0v283h254v-283h-254zM174 0v283h254v-283h-254z" />
<glyph unicode="&#x2026;" horiz-adv-x="2007" d="M209 0v283h252v-283h-252zM877 0v283h253v-283h-253zM1546 0v283h252v-283h-252z" />
<glyph unicode="&#x202a;" horiz-adv-x="0" />
<glyph unicode="&#x202f;" horiz-adv-x="407" />
<glyph unicode="&#x2030;" horiz-adv-x="2568" d="M80 1112q0 143 104.5 246.5t249.5 103.5q147 0 253 -104.5t106 -249.5q0 -150 -103.5 -253t-251.5 -103q-152 0 -255 104t-103 256zM289 1110q0 -63 43 -107.5t106 -44.5q59 0 102.5 44.5t43.5 103.5q0 61 -43 104t-105 43q-61 0 -104 -42t-43 -101zM455 0l647 1434h196 l-645 -1434h-198zM965 340q0 143 104.5 246.5t249.5 103.5q147 0 252.5 -103.5t105.5 -248.5q0 -150 -104.5 -255.5t-249.5 -105.5q-152 0 -255 105.5t-103 257.5zM1171 338q0 -63 44.5 -107.5t107.5 -44.5q59 0 101 44t42 104.5t-43 104.5t-103 44t-104.5 -43t-44.5 -102z M1776 340q0 143 105.5 246.5t250.5 103.5t250.5 -103.5t105.5 -248.5q0 -150 -103.5 -255.5t-250.5 -105.5q-152 0 -255 105.5t-103 257.5zM1985 338q0 -63 43 -107.5t106 -44.5q59 0 102 44t43 104.5t-43 104.5t-103 44t-104 -43t-44 -102z" />
<glyph unicode="&#x2032;" horiz-adv-x="401" d="M72 1434h254l-56 -578h-145z" />
<glyph unicode="&#x2033;" horiz-adv-x="802" d="M473 1434h254l-56 -578h-145zM72 1434h254l-56 -578h-145z" />
<glyph unicode="&#x2034;" horiz-adv-x="1204" d="M875 1434h254l-56 -578h-145zM473 1434h254l-56 -578h-145zM72 1434h254l-56 -578h-145z" />
<glyph unicode="&#x2035;" horiz-adv-x="921" d="M143 1454l99 217l536 -289l-82 -178z" />
<glyph unicode="&#x2036;" horiz-adv-x="1845" d="M1067 1454l99 217l536 -289l-82 -178zM143 1454l99 217l536 -289l-82 -178z" />
<glyph unicode="&#x2037;" horiz-adv-x="2768" d="M1990 1454l99 217l536 -289l-82 -178zM1067 1454l99 217l536 -289l-82 -178zM143 1454l99 217l536 -289l-82 -178z" />
<glyph unicode="&#x2039;" horiz-adv-x="401" d="M72 442v191l247 285l13 -232l-129 -158l129 -157l-13 -217z" />
<glyph unicode="&#x203a;" horiz-adv-x="401" d="M72 371l127 157l-127 158l10 232l250 -285v-191l-250 -288z" />
<glyph unicode="&#x203c;" horiz-adv-x="802" d="M475 0v283h254v-283h-254zM475 430v1004h254v-1004h-254zM74 0v283h254v-283h-254zM74 430v1004h254v-1004h-254z" />
<glyph unicode="&#x203e;" horiz-adv-x="602" d="M-385 121v197h770v-197h-770z" />
<glyph unicode="&#x2044;" horiz-adv-x="159" d="M-340 0l647 1434h197l-643 -1434h-201z" />
<glyph unicode="&#x2047;" horiz-adv-x="2166" d="M1155 979q-4 205 137 348t344 143q193 0 332 -139t139 -330q0 -92 -31.5 -161.5t-79 -114.5t-95.5 -86t-88 -101.5t-52 -136.5h-252q0 117 49 200t152 177q39 37 51 49.5t38.5 43t35 59t8.5 65.5q0 86 -61.5 150.5t-145.5 64.5q-98 0 -158.5 -66.5t-62.5 -164.5h-260z M1509 0v283h252v-283h-252zM72 979q-4 205 137 348t344 143q193 0 332 -139t139 -330q0 -92 -31.5 -161.5t-79 -114.5t-95.5 -86t-88 -101.5t-52 -136.5h-252q0 117 49 200t152 177q39 37 51 49.5t38.5 43t35 59t8.5 65.5q0 86 -61.5 150.5t-145.5 64.5q-98 0 -158.5 -66.5 t-62.5 -164.5h-260zM426 0v283h252v-283h-252z" />
<glyph unicode="&#x2048;" horiz-adv-x="1484" d="M1157 0v283h254v-283h-254zM1157 430v1004h254v-1004h-254zM72 979q-4 205 137 348t344 143q193 0 332 -139t139 -330q0 -92 -31.5 -161.5t-79 -114.5t-95.5 -86t-88 -101.5t-52 -136.5h-252q0 117 49 200t152 177q39 37 51 49.5t38.5 43t35 59t8.5 65.5 q0 86 -61.5 150.5t-145.5 64.5q-98 0 -158.5 -66.5t-62.5 -164.5h-260zM426 0v283h252v-283h-252z" />
<glyph unicode="&#x2049;" horiz-adv-x="1484" d="M473 979q-4 205 137 348t344 143q193 0 332 -139t139 -330q0 -92 -31.5 -161.5t-79 -114.5t-95.5 -86t-88 -101.5t-52 -136.5h-252q0 117 49 200t152 177q39 37 51 49.5t38.5 43t35 59t8.5 65.5q0 86 -61.5 150.5t-145.5 64.5q-98 0 -158.5 -66.5t-62.5 -164.5h-260z M827 0v283h252v-283h-252zM74 0v283h254v-283h-254zM74 430v1004h254v-1004h-254z" />
<glyph unicode="&#x2057;" horiz-adv-x="1605" d="M1276 1434h254l-56 -578h-145zM875 1434h254l-56 -578h-145zM473 1434h254l-56 -578h-145zM72 1434h254l-56 -578h-145z" />
<glyph unicode="&#x205f;" horiz-adv-x="509" />
<glyph unicode="&#x2060;" horiz-adv-x="0" />
<glyph unicode="&#x20a8;" horiz-adv-x="2207" d="M1331 770q0 150 105.5 237t257.5 87q166 0 241 -97v74h183v-291h-238q-2 57 -41 92t-98 35q-53 0 -94 -29.5t-41 -82.5q0 -37 15 -61.5t46 -41t52.5 -22.5t62.5 -17q70 -14 115.5 -28.5t105 -42t95.5 -61.5t59.5 -88t23.5 -124q0 -158 -112.5 -248t-270.5 -90 q-176 0 -276 117v-88h-189v311h252q6 -72 52 -115.5t120 -43.5q59 0 103.5 36.5t44.5 94.5q0 16 -3.5 30.5t-7.5 24.5t-14 19.5t-16.5 16.5t-20.5 14l-20 10q-6 3 -25.5 10.5t-25 8.5t-27 7t-23.5 6q-74 18 -115.5 30.5t-102 41t-92.5 61.5t-56.5 86t-24.5 121zM45 0v229 h154v975h-154v230h639q123 0 210 -22.5t165 -88.5q172 -147 172 -377q0 -164 -99.5 -291t-257.5 -141l224 -285h162v-229h-334l-455 645v-416h123v-229h-549zM471 670h150q160 0 237 59q98 76 98 206t-94 204q-27 23 -64.5 34t-62 13t-76.5 2h-188v-518z" />
<glyph unicode="&#x20ac;" d="M0 565v115h131v49q0 37 2 57h-133v115h141q33 254 161 411.5t341 157.5q201 0 270 -176v146h185v-467h-232q-35 254 -219 254q-201 0 -244 -326h365v-115h-373q-2 -20 -2 -59v-47h375v-115h-367q33 -348 252 -348q209 0 242 254h231q-63 -500 -475 -500 q-104 0 -206.5 51.5t-178.5 157.5q-102 147 -127 385h-139z" />
<glyph unicode="&#x2122;" horiz-adv-x="1966" d="M0 1319v115h662v-115h-259v-703h-143v703h-260zM807 616v818h209l233 -578l244 578h205v-818h-127v703l-283 -703h-76l-276 703v-703h-129z" />
<glyph unicode="&#x2202;" horiz-adv-x="1185" d="M80 469q0 244 130 392.5t318 148.5q115 0 198 -57.5t116 -114.5h4v71q0 215 -100.5 365.5t-258.5 150.5q-152 0 -272 -98l-72 180q158 121 377 121q238 0 401.5 -207t163.5 -581q0 -389 -153.5 -623.5t-423.5 -234.5q-203 0 -315.5 149.5t-112.5 337.5zM324 461 q0 -117 57 -197t149 -80h2q115 0 192 133.5t97 311.5q-20 63 -87.5 123.5t-158.5 60.5q-109 0 -180 -104.5t-71 -247.5z" />
<glyph unicode="&#x2206;" horiz-adv-x="1363" d="M55 0v147l488 1330h291l473 -1327v-150h-1252zM309 199h733l-241 639q-16 53 -62.5 189t-58.5 183h-6q-8 -37 -51 -159.5t-60 -182.5z" />
<glyph unicode="&#x220f;" horiz-adv-x="1495" d="M49 1223v223h1393v-223h-215v-1422h-244v1422h-475v-1422h-242v1422h-217z" />
<glyph unicode="&#x2211;" horiz-adv-x="1159" d="M49 -43l510 666l-491 651v172h1017v-209h-688v-8l441 -567l-486 -627v-8h768v-228h-1071v158z" />
<glyph unicode="&#x221a;" horiz-adv-x="1224" d="M66 698l344 140l225 -682q8 -33 21.5 -92.5t17.5 -77.5l2 -2q4 18 9 46.5t12.5 70.5t11.5 65l360 1565h174l-469 -2024h-199l-313 916l-153 -62z" />
<glyph unicode="&#x221e;" horiz-adv-x="1611" d="M100 586q0 156 97.5 254t244.5 98q109 0 197 -60.5t178 -172.5q53 61 74.5 82.5t76 67.5t108.5 64.5t120 18.5q137 0 227 -94t90 -246v-2q0 -158 -98 -255t-233 -97q-94 0 -182.5 54t-190.5 181q-94 -115 -181 -175t-204 -60q-133 0 -228.5 97.5t-95.5 244.5zM242 584 q0 -86 56 -146.5t144 -60.5h4q53 0 112.5 37t87.5 67.5t89 98.5q-47 63 -67.5 86.5t-62.5 64.5t-83 57.5t-88 16.5q-88 0 -140 -62.5t-52 -158.5zM887 594q100 -123 163.5 -170t137.5 -47q82 0 133 65.5t51 143.5q0 96 -53 157.5t-137 61.5h-4q-29 0 -61 -12.5t-54.5 -25.5 t-53 -41t-44 -43t-43 -49t-35.5 -40z" />
<glyph unicode="&#x222b;" horiz-adv-x="804" d="M39 -319l31 174q49 -23 92 -23q59 0 90 43q61 78 61 328q0 186 -15 519t-15 507q0 178 28.5 285.5t94.5 175.5q84 92 233 92q68 0 125 -25l-27 -168q-37 18 -75 19q-68 0 -105 -52q-57 -72 -57 -352q0 -162 15 -487.5t15 -511.5q0 -279 -79 -416q-76 -141 -256 -141 q-93 0 -156 33z" />
<glyph unicode="&#x2248;" horiz-adv-x="1146" d="M80 340q49 92 129 150.5t170 58.5q25 0 49.5 -4t40.5 -8.5t41 -15.5t33 -15t31.5 -18.5t27.5 -16.5q10 -6 44 -25.5t48.5 -25.5t41 -14.5t50.5 -8.5q59 0 100.5 36t88.5 114l88 -82q-111 -211 -281 -211q-55 0 -104 19.5t-127 66.5q-119 70 -184 70q-43 0 -82 -26 t-59.5 -50.5t-55.5 -77.5zM80 721q49 94 128 151.5t173 57.5q18 0 36.5 -2t32 -5t32 -9.5t27.5 -10.5t26.5 -13t22.5 -13.5t22.5 -14.5t21.5 -10q6 -4 28.5 -17.5t28.5 -16.5l25 -12q18 -9 26.5 -12t24 -8.5t26.5 -6.5t25 -1q57 0 100.5 37t88.5 113l88 -80 q-109 -211 -279 -211q-94 0 -233 84q-119 68 -184 67q-41 0 -80 -24.5t-60.5 -49t-56.5 -73.5z" />
<glyph unicode="&#x2260;" horiz-adv-x="1146" d="M100 301v143h344l123 285h-467v143h523l104 234l113 -47l-84 -187h293v-143h-347l-127 -285h474v-143h-529l-104 -240l-113 50l84 190h-287z" />
<glyph unicode="&#x2264;" horiz-adv-x="1146" d="M102 -20v147h949v-147h-949zM113 668v155l929 461v-166l-786 -368v-5l786 -374v-166z" />
<glyph unicode="&#x2265;" horiz-adv-x="1146" d="M104 -20v147h943v-147h-943zM115 1118v166l932 -463v-155l-930 -461v166l784 372v5z" />
<glyph unicode="&#x25ca;" horiz-adv-x="1224" d="M106 721l414 823h195l405 -823l-415 -821h-195zM322 727l249 -516q25 -63 37 -115h8q25 82 35 111l252 508l-248 510q-25 63 -39 121h-6q-18 -68 -41 -121z" />
<glyph unicode="&#xe000;" horiz-adv-x="1070" d="M0 1070h1070v-1070h-1070v1070z" />
<glyph unicode="&#xfb01;" horiz-adv-x="1083" d="M35 0v229h137v615h-137v227h137q-6 403 416 399v-215q-92 2 -134 -46t-36 -138h522v-842h137v-229h-1042zM418 229h276v615h-276v-615zM694 1174v260h246v-260h-246z" />
<glyph unicode="&#xfb02;" horiz-adv-x="1083" d="M35 0v229h137v615h-137v227h137q2 219 109.5 309t330.5 90h326v-1241h137v-229h-1040zM418 229h274v1026h-51q-123 0 -175 -32.5t-48 -151.5h139v-227h-139v-615z" />
<glyph unicode="&#xfb03;" horiz-adv-x="1886" d="M1323 0v229h139v615h-137v227h383v-842h137v-229h-522zM1462 1174v260h246v-260h-246zM678 0v229h137v615h-137v227h137q-2 199 104.5 299t311.5 100v-217q-90 0 -132 -47q-38 -43 -39 -120q0 -8 1 -15h139v-227h-139v-615h139v-229h-522zM35 0v229h137v615h-137v227h137 q-2 199 104.5 299t311.5 100v-217q-90 0 -132 -47q-38 -43 -39 -120q0 -8 1 -15h139v-227h-139v-615h139v-229h-522z" />
<glyph unicode="&#xfb04;" horiz-adv-x="1886" d="M1319 0v229h147v975h-137v230h383v-1205h137v-229h-530zM678 0v229h137v615h-137v227h137q-2 199 104.5 299t311.5 100v-217q-90 0 -132 -47q-38 -43 -39 -120q0 -8 1 -15h139v-227h-139v-615h139v-229h-522zM35 0v229h137v615h-137v227h137q-2 199 104.5 299t311.5 100 v-217q-90 0 -132 -47q-38 -43 -39 -120q0 -8 1 -15h139v-227h-139v-615h139v-229h-522z" />
</font>
</defs>
</svg>
